<svg viewBox="0 0 1200 630" width="1200" height="630" xmlns="http://www.w3.org/2000/svg">
  <defs>
    <pattern id="grid" x="0" y="0" width="40" height="40" patternUnits="userSpaceOnUse">
      <path d="M 40 0 L 0 0 0 40" fill="none" stroke="#26262a" stroke-width="0.5"/>
    </pattern>
  </defs>

  <rect width="1200" height="630" fill="#16161a"/>
  <rect width="1200" height="630" fill="url(#grid)"/>
  <rect x="0" y="0" width="1200" height="5" fill="#ff8a00"/>

  <text x="64" y="80" fill="#6b6a63" font-family="Consolas, 'Courier New', monospace" font-size="14" letter-spacing="3">N.ZENKOV  ·  СТАТЬЯ  ·  17 МИН</text>

  <text x="64" y="210" fill="#e8e4dc" font-family="'Segoe UI', Tahoma, sans-serif" font-weight="700" font-size="56">Как меня обыграли в «Сундук войны»</text>
  <text x="64" y="282" fill="#e8e4dc" font-family="'Segoe UI', Tahoma, sans-serif" font-weight="700" font-size="56">и я решил написать <tspan fill="#ff8a00">AlphaZero</tspan></text>

  <text x="64" y="340" fill="#a89e8f" font-family="Consolas, 'Courier New', monospace" font-size="22">движок на C# · Монте-Карло · нейросети · тир-лист юнитов</text>

  <!-- MCTS tree: root coin, best path in orange -->
  <g transform="translate(64, 420)">
    <text x="0" y="90" fill="#6b6a63" font-family="Consolas, 'Courier New', monospace" font-size="13" font-weight="bold">MCTS</text>

    <!-- edges -->
    <g fill="none" stroke-linecap="round">
      <path d="M 90,85 C 160,85 180,35 250,35"  stroke="#ff8a00" stroke-width="2.5"/>
      <path d="M 90,85 C 160,85 180,85 250,85"  stroke="#4a4a4e" stroke-width="2"/>
      <path d="M 90,85 C 160,85 180,135 250,135" stroke="#4a4a4e" stroke-width="1.5"/>

      <path d="M 262,35 C 330,35 350,15 420,15"  stroke="#4a4a4e" stroke-width="1.5"/>
      <path d="M 262,35 C 330,35 350,55 420,55"  stroke="#ff8a00" stroke-width="2.5"/>
      <path d="M 262,85 C 330,85 350,105 420,105" stroke="#4a4a4e" stroke-width="1.5"/>
      <path d="M 262,135 C 330,135 350,150 420,150" stroke="#4a4a4e" stroke-width="1.5"/>

      <path d="M 432,55 C 500,55 520,35 590,35"  stroke="#ff8a00" stroke-width="2.5"/>
      <path d="M 432,55 C 500,55 520,75 590,75"  stroke="#4a4a4e" stroke-width="1.5"/>
      <path d="M 432,105 C 500,105 520,120 590,120" stroke="#4a4a4e" stroke-width="1.5"/>

      <path d="M 602,35 C 670,35 690,20 760,20"  stroke="#4a4a4e" stroke-width="1.5"/>
      <path d="M 602,35 C 670,35 690,50 760,50"  stroke="#ff8a00" stroke-width="2.5"/>
    </g>

    <!-- root: coin with hex -->
    <circle cx="72" cy="85" r="22" fill="#16161a" stroke="#ff8a00" stroke-width="2.5"/>
    <path d="M 72,71 L 84,78 L 84,92 L 72,99 L 60,92 L 60,78 Z" fill="none" stroke="#ff8a00" stroke-width="2"/>

    <!-- nodes -->
    <circle cx="256" cy="35"  r="8" fill="#16161a" stroke="#ff8a00" stroke-width="2.5"/>
    <circle cx="256" cy="85"  r="7" fill="#16161a" stroke="#4a4a4e" stroke-width="2"/>
    <circle cx="256" cy="135" r="6" fill="#16161a" stroke="#4a4a4e" stroke-width="2"/>

    <circle cx="426" cy="15"  r="5" fill="#16161a" stroke="#4a4a4e" stroke-width="2"/>
    <circle cx="426" cy="55"  r="8" fill="#16161a" stroke="#ff8a00" stroke-width="2.5"/>
    <circle cx="426" cy="105" r="6" fill="#16161a" stroke="#4a4a4e" stroke-width="2"/>
    <circle cx="426" cy="150" r="5" fill="#16161a" stroke="#4a4a4e" stroke-width="2"/>

    <circle cx="596" cy="35"  r="8" fill="#16161a" stroke="#ff8a00" stroke-width="2.5"/>
    <circle cx="596" cy="75"  r="5" fill="#16161a" stroke="#4a4a4e" stroke-width="2"/>
    <circle cx="596" cy="120" r="5" fill="#16161a" stroke="#4a4a4e" stroke-width="2"/>

    <circle cx="766" cy="20"  r="5" fill="#16161a" stroke="#4a4a4e" stroke-width="2"/>
    <circle cx="766" cy="50"  r="8" fill="#ff8a00"/>

    <!-- annotations -->
    <text x="240" y="14"  fill="#6b6a63" font-family="Consolas, 'Courier New', monospace" font-size="13">N=812  v=0.64</text>
    <text x="790" y="55"  fill="#ff8a00" font-family="Consolas, 'Courier New', monospace" font-size="14">лучший ход</text>
  </g>

  <text x="64" y="592" fill="#6b6a63" font-family="Consolas, 'Courier New', monospace" font-size="14">cm4ker.ru</text>

  <!-- coin icon top-right -->
  <g transform="translate(1056, 56)">
    <circle cx="40" cy="40" r="26" fill="none" stroke="#ff8a00" stroke-width="7"/>
    <path d="M 40,28 L 50.4,34 L 50.4,46 L 40,52 L 29.6,46 L 29.6,34 Z" fill="#ff8a00"/>
  </g>
</svg>
