<svg viewBox="0 0 580 240" xmlns="http://www.w3.org/2000/svg" role="img" aria-label="Open-drain топология шины I2C: pull-up и устройства, замыкающие линию на GND" style="width:100%;height:auto;max-width:580px;display:block;margin:1em 0;">
  <text x="40" y="22" fill="currentColor" font-family="ui-monospace, SFMono-Regular, Menlo, monospace" font-size="13" font-weight="bold">+V</text>
  <line x1="80" y1="14" x2="80" y2="34" stroke="currentColor" stroke-width="2"/>
  <path d="M 80,34 L 70,40 L 90,50 L 70,60 L 90,70 L 70,80 L 90,90 L 80,96" fill="none" stroke="currentColor" stroke-width="2"/>
  <text x="100" y="70" fill="currentColor" font-family="ui-monospace, SFMono-Regular, Menlo, monospace" font-size="12" opacity="0.8">R ≈ 4.7 кΩ</text>
  <line x1="80" y1="96" x2="80" y2="120" stroke="currentColor" stroke-width="2"/>
  <line x1="80" y1="120" x2="520" y2="120" stroke="currentColor" stroke-width="2"/>
  <text x="530" y="124" fill="currentColor" font-family="ui-monospace, SFMono-Regular, Menlo, monospace" font-size="13" font-weight="bold">SDA</text>
  <line x1="200" y1="120" x2="200" y2="150" stroke="currentColor" stroke-width="2"/>
  <circle cx="200" cy="120" r="3" fill="currentColor"/>
  <rect x="150" y="150" width="100" height="50" fill="none" stroke="currentColor" stroke-width="2" rx="3"/>
  <text x="200" y="172" fill="currentColor" font-family="ui-monospace, SFMono-Regular, Menlo, monospace" font-size="13" text-anchor="middle" font-weight="bold">Master</text>
  <text x="200" y="190" fill="currentColor" font-family="ui-monospace, SFMono-Regular, Menlo, monospace" font-size="10" text-anchor="middle" opacity="0.75">Arduino</text>
  <line x1="200" y1="200" x2="200" y2="215" stroke="currentColor" stroke-width="2"/>
  <line x1="186" y1="215" x2="214" y2="215" stroke="currentColor" stroke-width="2"/>
  <line x1="190" y1="220" x2="210" y2="220" stroke="currentColor" stroke-width="1.5"/>
  <line x1="194" y1="225" x2="206" y2="225" stroke="currentColor" stroke-width="1"/>
  <line x1="400" y1="120" x2="400" y2="150" stroke="currentColor" stroke-width="2"/>
  <circle cx="400" cy="120" r="3" fill="currentColor"/>
  <rect x="340" y="150" width="120" height="50" fill="none" stroke="currentColor" stroke-width="2" rx="3"/>
  <text x="400" y="172" fill="currentColor" font-family="ui-monospace, SFMono-Regular, Menlo, monospace" font-size="13" text-anchor="middle" font-weight="bold">Slave</text>
  <text x="400" y="190" fill="currentColor" font-family="ui-monospace, SFMono-Regular, Menlo, monospace" font-size="10" text-anchor="middle" opacity="0.75">RadSens</text>
  <line x1="400" y1="200" x2="400" y2="215" stroke="currentColor" stroke-width="2"/>
  <line x1="386" y1="215" x2="414" y2="215" stroke="currentColor" stroke-width="2"/>
  <line x1="390" y1="220" x2="410" y2="220" stroke="currentColor" stroke-width="1.5"/>
  <line x1="394" y1="225" x2="406" y2="225" stroke="currentColor" stroke-width="1"/>
</svg>
