<svg viewBox="0 0 800 270" xmlns="http://www.w3.org/2000/svg" role="img" aria-label="Топология шины I2C: один master и несколько slave на общих линиях SDA/SCL с pull-up" style="width:100%;height:auto;max-width:800px;display:block;margin:1em 0;">
  <line x1="10" y1="20" x2="160" y2="20" stroke="currentColor" stroke-width="2"/>
  <text x="10" y="14" fill="currentColor" font-family="ui-monospace, SFMono-Regular, Menlo, monospace" font-size="12" font-weight="bold">+V</text>
  <line x1="80" y1="20" x2="80" y2="34" stroke="currentColor" stroke-width="2"/>
  <path d="M 80,34 L 70,40 L 90,50 L 70,60 L 90,70 L 70,80 L 90,90 L 80,96" fill="none" stroke="currentColor" stroke-width="2"/>
  <text x="55" y="68" fill="currentColor" font-family="ui-monospace, SFMono-Regular, Menlo, monospace" font-size="11" text-anchor="end" opacity="0.75">R</text>
  <line x1="80" y1="96" x2="80" y2="150" stroke="currentColor" stroke-width="2"/>
  <line x1="140" y1="20" x2="140" y2="34" stroke="currentColor" stroke-width="2"/>
  <path d="M 140,34 L 130,40 L 150,50 L 130,60 L 150,70 L 130,80 L 150,90 L 140,96" fill="none" stroke="currentColor" stroke-width="2"/>
  <text x="165" y="68" fill="currentColor" font-family="ui-monospace, SFMono-Regular, Menlo, monospace" font-size="11" opacity="0.75">R</text>
  <line x1="140" y1="96" x2="140" y2="120" stroke="currentColor" stroke-width="2"/>
  <line x1="140" y1="120" x2="720" y2="120" stroke="currentColor" stroke-width="2"/>
  <text x="730" y="124" fill="currentColor" font-family="ui-monospace, SFMono-Regular, Menlo, monospace" font-size="13" font-weight="bold">SDA</text>
  <line x1="80" y1="150" x2="720" y2="150" stroke="currentColor" stroke-width="2"/>
  <text x="730" y="154" fill="currentColor" font-family="ui-monospace, SFMono-Regular, Menlo, monospace" font-size="13" font-weight="bold">SCL</text>
  <circle cx="140" cy="120" r="3" fill="currentColor"/>
  <circle cx="80" cy="150" r="3" fill="currentColor"/>
  <line x1="200" y1="120" x2="200" y2="190" stroke="currentColor" stroke-width="2"/>
  <line x1="230" y1="150" x2="230" y2="190" stroke="currentColor" stroke-width="2"/>
  <circle cx="200" cy="120" r="3" fill="currentColor"/>
  <circle cx="230" cy="150" r="3" fill="currentColor"/>
  <rect x="180" y="190" width="80" height="50" fill="none" stroke="currentColor" stroke-width="2" rx="3"/>
  <text x="220" y="212" fill="currentColor" font-family="ui-monospace, SFMono-Regular, Menlo, monospace" font-size="13" text-anchor="middle" font-weight="bold">Master</text>
  <text x="220" y="228" fill="currentColor" font-family="ui-monospace, SFMono-Regular, Menlo, monospace" font-size="10" text-anchor="middle" opacity="0.75">Arduino UNO</text>
  <line x1="360" y1="120" x2="360" y2="190" stroke="currentColor" stroke-width="2"/>
  <line x1="390" y1="150" x2="390" y2="190" stroke="currentColor" stroke-width="2"/>
  <circle cx="360" cy="120" r="3" fill="currentColor"/>
  <circle cx="390" cy="150" r="3" fill="currentColor"/>
  <rect x="340" y="190" width="80" height="50" fill="none" stroke="currentColor" stroke-width="2" rx="3"/>
  <text x="380" y="212" fill="currentColor" font-family="ui-monospace, SFMono-Regular, Menlo, monospace" font-size="13" text-anchor="middle" font-weight="bold">RadSens</text>
  <text x="380" y="228" fill="currentColor" font-family="ui-monospace, SFMono-Regular, Menlo, monospace" font-size="11" text-anchor="middle" opacity="0.75">0x66</text>
  <line x1="520" y1="120" x2="520" y2="190" stroke="currentColor" stroke-width="2"/>
  <line x1="550" y1="150" x2="550" y2="190" stroke="currentColor" stroke-width="2"/>
  <circle cx="520" cy="120" r="3" fill="currentColor"/>
  <circle cx="550" cy="150" r="3" fill="currentColor"/>
  <rect x="500" y="190" width="80" height="50" fill="none" stroke="currentColor" stroke-width="2" rx="3"/>
  <text x="540" y="212" fill="currentColor" font-family="ui-monospace, SFMono-Regular, Menlo, monospace" font-size="13" text-anchor="middle" font-weight="bold">BMP280</text>
  <text x="540" y="228" fill="currentColor" font-family="ui-monospace, SFMono-Regular, Menlo, monospace" font-size="11" text-anchor="middle" opacity="0.75">0x76</text>
  <line x1="660" y1="120" x2="660" y2="190" stroke="currentColor" stroke-width="2"/>
  <line x1="690" y1="150" x2="690" y2="190" stroke="currentColor" stroke-width="2"/>
  <circle cx="660" cy="120" r="3" fill="currentColor"/>
  <circle cx="690" cy="150" r="3" fill="currentColor"/>
  <rect x="640" y="190" width="80" height="50" fill="none" stroke="currentColor" stroke-width="2" rx="3"/>
  <text x="680" y="212" fill="currentColor" font-family="ui-monospace, SFMono-Regular, Menlo, monospace" font-size="13" text-anchor="middle" font-weight="bold">SSD1306</text>
  <text x="680" y="228" fill="currentColor" font-family="ui-monospace, SFMono-Regular, Menlo, monospace" font-size="11" text-anchor="middle" opacity="0.75">0x3C</text>
</svg>
