<svg viewBox="0 0 890 270" xmlns="http://www.w3.org/2000/svg" role="img" aria-label="I2C тайминг: SCL и SDA для байта 0xA5 с битом ACK от slave" style="width:100%;height:auto;max-width:890px;display:block;margin:1em 0;">
  <g stroke="currentColor" stroke-width="1" stroke-dasharray="2 4" opacity="0.35" fill="none">
    <line x1="120" y1="30" x2="120" y2="240"/>
    <line x1="200" y1="30" x2="200" y2="240"/>
    <line x1="280" y1="30" x2="280" y2="240"/>
    <line x1="360" y1="30" x2="360" y2="240"/>
    <line x1="440" y1="30" x2="440" y2="240"/>
    <line x1="520" y1="30" x2="520" y2="240"/>
    <line x1="600" y1="30" x2="600" y2="240"/>
    <line x1="680" y1="30" x2="680" y2="240"/>
    <line x1="760" y1="30" x2="760" y2="240"/>
    <line x1="840" y1="30" x2="840" y2="240"/>
  </g>
  <g fill="currentColor" font-family="ui-monospace, SFMono-Regular, Menlo, monospace" font-size="14" text-anchor="middle" opacity="0.75">
    <text x="160" y="20">1</text>
    <text x="240" y="20">2</text>
    <text x="320" y="20">3</text>
    <text x="400" y="20">4</text>
    <text x="480" y="20">5</text>
    <text x="560" y="20">6</text>
    <text x="640" y="20">7</text>
    <text x="720" y="20">8</text>
    <text x="800" y="20">ACK</text>
  </g>
  <text x="10" y="78" fill="currentColor" font-family="ui-monospace, SFMono-Regular, Menlo, monospace" font-size="18" font-weight="bold">SCL</text>
  <text x="80" y="54" fill="currentColor" font-family="ui-monospace, SFMono-Regular, Menlo, monospace" font-size="12" text-anchor="end" opacity="0.75">H</text>
  <text x="80" y="104" fill="currentColor" font-family="ui-monospace, SFMono-Regular, Menlo, monospace" font-size="12" text-anchor="end" opacity="0.75">L</text>
  <path d="M 100,50 H 120 V 100 H 160 V 50 H 200 V 100 H 240 V 50 H 280 V 100 H 320 V 50 H 360 V 100 H 400 V 50 H 440 V 100 H 480 V 50 H 520 V 100 H 560 V 50 H 600 V 100 H 640 V 50 H 680 V 100 H 720 V 50 H 760 V 100 H 800 V 50 H 860" fill="none" stroke="currentColor" stroke-width="3" stroke-linejoin="miter"/>
  <line x1="100" y1="125" x2="850" y2="125" stroke="currentColor" stroke-width="1.5" opacity="0.55"/>
  <polygon points="850,120 860,125 850,130" fill="currentColor" opacity="0.55"/>
  <text x="865" y="129" fill="currentColor" font-family="ui-monospace, SFMono-Regular, Menlo, monospace" font-size="14" font-style="italic" opacity="0.75">t</text>
  <text x="10" y="178" fill="currentColor" font-family="ui-monospace, SFMono-Regular, Menlo, monospace" font-size="18" font-weight="bold">SDA</text>
  <text x="80" y="154" fill="currentColor" font-family="ui-monospace, SFMono-Regular, Menlo, monospace" font-size="12" text-anchor="end" opacity="0.75">H</text>
  <text x="80" y="204" fill="currentColor" font-family="ui-monospace, SFMono-Regular, Menlo, monospace" font-size="12" text-anchor="end" opacity="0.75">L</text>
  <path d="M 100,200 H 120 V 150 H 200 V 200 H 280 V 150 H 360 V 200 H 520 V 150 H 600 V 200 H 680 V 150 H 760 V 200 H 860" fill="none" stroke="currentColor" stroke-width="3" stroke-linejoin="miter"/>
  <g fill="currentColor" font-family="ui-monospace, SFMono-Regular, Menlo, monospace" font-size="18" font-weight="bold" text-anchor="middle">
    <text x="160" y="232">1</text>
    <text x="240" y="232">0</text>
    <text x="320" y="232">1</text>
    <text x="400" y="232">0</text>
    <text x="480" y="232">0</text>
    <text x="560" y="232">1</text>
    <text x="640" y="232">0</text>
    <text x="720" y="232">1</text>
    <text x="800" y="232" opacity="0.7">0</text>
  </g>
  <g fill="currentColor" font-family="ui-monospace, SFMono-Regular, Menlo, monospace" font-size="10" text-anchor="middle" opacity="0.6">
    <text x="160" y="253">MSB</text>
    <text x="720" y="253">LSB</text>
  </g>
</svg>
